<svg xmlns="http://www.w3.org/2000/svg" viewBox="0 0 32 32"><title>GitHub</title><path d="M16,1.25a14.852,14.852,0,0,0-4.744,28.974c.75.14,1.025-.32,1.025-.715,0-.353-.012-1.288-.019-2.528-4.172.9-5.052-1.994-5.052-1.994a3.951,3.951,0,0,0-1.669-2.175c-1.359-.922.1-.9.1-.9a3.139,3.139,0,0,1,2.3,1.532,3.214,3.214,0,0,0,4.368,1.237,3.163,3.163,0,0,1,.95-1.988c-3.331-.372-6.832-1.651-6.832-7.347a5.706,5.706,0,0,1,1.544-3.99,5.243,5.243,0,0,1,.131-3.935s1.256-.4,4.125,1.524a14.285,14.285,0,0,1,7.5,0c2.85-1.922,4.106-1.524,4.106-1.524a5.39,5.39,0,0,1,.15,3.935,5.733,5.733,0,0,1,1.538,3.99c0,5.711-3.507,6.968-6.844,7.334a3.543,3.543,0,0,1,1.012,2.751c0,1.99-.018,3.588-.018,4.071,0,.39.262.855,1.031.706A14.834,14.834,0,0,0,16,1.25Z" style="fill:#fff"/></svg>