<svg xmlns="http://www.w3.org/2000/svg" viewBox="0 0 32 32"><title>slack</title><path d="M13,16.25a2.765,2.765,0,0,0-2.75,2.777v6.946a2.75,2.75,0,1,0,5.5,0V19.027A2.766,2.766,0,0,0,13,16.25Z" style="fill:#3b87ec"/><path d="M3.25,19.5a2.75,2.75,0,0,0,5.5,0V16.75H6A2.751,2.751,0,0,0,3.25,19.5Z" style="fill:#3b87ec"/><path d="M13,3.25h0a2.75,2.75,0,1,0,0,5.5H15.75V6A2.746,2.746,0,0,0,13,3.25Z" style="fill:#3b87ec"/><path d="M6.025,15.75h6.95a2.75,2.75,0,1,0,0-5.5H6.025a2.75,2.75,0,1,0,0,5.5Z" style="fill:#3b87ec"/><path d="M26,10.25A2.745,2.745,0,0,0,23.25,13V15.75H26a2.75,2.75,0,1,0,0-5.5Z" style="fill:#3b87ec"/><path d="M16.75,6.022v6.956a2.75,2.75,0,1,0,5.5,0V6.022a2.75,2.75,0,1,0-5.5,0Z" style="fill:#3b87ec"/><path d="M22.25,26a2.751,2.751,0,0,0-2.75-2.75H16.75V26a2.75,2.75,0,0,0,5.5,0Z" style="fill:#3b87ec"/><path d="M25.975,16.75h-6.95a2.75,2.75,0,1,0,0,5.5h6.95a2.75,2.75,0,1,0,0-5.5Z" style="fill:#3b87ec"/></svg>