<svg xmlns="http://www.w3.org/2000/svg" viewBox="0 0 64 64"><title>Twitter</title><path d="M55.246,21.472A23.076,23.076,0,0,0,61,15.447v0a23.776,23.776,0,0,1-6.615,1.832,11.521,11.521,0,0,0,5.052-6.414,22.8,22.8,0,0,1-7.28,2.81A11.454,11.454,0,0,0,32.3,21.609a12.07,12.07,0,0,0,.266,2.646A32.389,32.389,0,0,1,8.9,12.114,11.8,11.8,0,0,0,7.326,17.98a11.655,11.655,0,0,0,5.1,9.646A11.255,11.255,0,0,1,7.24,26.2v.127a11.631,11.631,0,0,0,9.2,11.406,11.321,11.321,0,0,1-3.01.382,10.065,10.065,0,0,1-2.172-.2A11.61,11.61,0,0,0,21.982,46,22.919,22.919,0,0,1,7.746,50.949,21.4,21.4,0,0,1,5,50.791,32.071,32.071,0,0,0,22.612,56C42.872,56,56.077,38.912,55.246,21.472Z" style="fill:#3b87ec"/></svg>