<svg xmlns="http://www.w3.org/2000/svg" viewBox="0 0 64 64"><title>youtube</title><path d="M32.183,11c1.953,0,18.87.075,23.293,1.285a7.516,7.516,0,0,1,5.288,5.287C62.007,22.112,62,31.413,62,32.018v.219c-.007,1.374-.1,9.931-1.235,14.24a7.514,7.514,0,0,1-5.288,5.287c-4.368,1.15-20.924,1.23-23.213,1.236h-.526c-2.283-.006-18.8-.09-23.213-1.285a7.521,7.521,0,0,1-5.289-5.287C2.061,42.012,2,32.95,2,32.069v-.138c0-.876.061-9.9,1.235-14.359a7.67,7.67,0,0,1,5.289-5.336C12.946,11.072,29.863,11,31.815,11ZM27,24V41l15-8.5Z" style="fill:#3b87ec"/></svg>